<svg width="75" height="46" viewBox="0 0 75 46" fill="none" xmlns="http://www.w3.org/2000/svg">
<path fill-rule="evenodd" clip-rule="evenodd" d="M69.2708 4.2071C65.2572 3.43728 63.5353 3.91737 62.3935 3.91076C61.005 3.90264 60.3664 3.1771 59.5008 3.32835C58.4448 3.51282 61.0403 5.54032 61.1156 5.84451C61.431 6.31728 60.8981 6.92335 61.3084 7.47701C61.8556 8.21532 62.8352 8.35612 63.1177 8.50969C63.624 9.04246 64.088 11.5423 64.7113 11.45C65.9067 11.2728 65.483 9.99219 65.9 9.59683C67.6378 7.94942 69.54 7.41924 72.429 8.22594C71.2466 6.79049 70.4533 5.64264 69.2708 4.2071ZM26.553 20.9647C26.5159 20.9849 22.803 23.0221 18.9312 25.8258C13.8812 29.4829 10.8531 32.7656 10.1741 35.3192C10.1067 35.5728 9.87057 35.7412 9.61183 35.7412C9.56389 35.7412 9.51518 35.7355 9.46667 35.7234C9.15592 35.6461 8.96874 35.3398 9.04863 35.0392C10.8328 28.329 25.3636 20.3237 25.9813 19.9861C26.2605 19.8333 26.6151 19.9288 26.773 20.199C26.9308 20.4692 26.8323 20.812 26.553 20.9647ZM62.8306 10.3133C62.6669 9.89187 62.4672 9.37771 62.3283 9.15781C62.2842 9.13561 62.2259 9.10845 62.1786 9.08626C62.1472 9.07165 62.1136 9.05582 62.0791 9.03952C61.7098 8.86439 61.175 8.58408 60.7515 8.03526C60.7759 8.0407 60.8 8.04678 60.8242 8.0525C60.7997 8.04669 60.7756 8.04013 60.7509 8.03451C60.7154 7.98844 60.6805 7.94105 60.6467 7.89113C60.347 7.44805 60.3644 7.01874 60.3772 6.70528C60.3864 6.48022 60.3889 6.33721 60.3278 6.23888L60.2912 6.17997L60.2852 6.15946C60.2172 6.06159 60.0029 5.81706 59.8282 5.61785C59.0019 4.67569 58.4621 4.02057 58.4859 3.51896C58.4877 3.48215 58.4933 3.44703 58.5009 3.41322C53.2064 2.70988 45.1392 6.95402 36.2346 11.877C32.5687 13.9036 20.1843 18.4782 12.6615 24.8889C4.07117 32.2092 4.20316 36.8663 5.94378 39.8949C5.98746 39.971 6.03219 40.0461 6.0778 40.1202C7.92601 43.1184 14.2306 44.0221 23.6976 40.09C27.234 38.6212 41.6882 28.5267 45.8 25.9187C53.55 21.0032 62.2938 17.4101 64.1431 12.3089C63.5814 12.2462 63.2468 11.3852 62.8306 10.3133Z" fill="#F9F9F9"/>
</svg>
