<svg width="90" height="56" viewBox="0 0 90 56" fill="none" xmlns="http://www.w3.org/2000/svg">
<path fill-rule="evenodd" clip-rule="evenodd" d="M49.3578 31.0336C49.3578 31.0336 47.809 34.6194 44.4529 36.481C41.0973 38.3427 37.2055 37.7749 37.2055 37.7749L49.3578 31.0336ZM24.4799 44.9628C24.4799 44.9628 22.9306 48.5492 19.575 50.4108C16.2189 52.2719 12.3271 51.7041 12.3271 51.7041L24.4799 44.9628ZM32.5309 31.1594C32.5309 31.1594 28.6386 30.5911 25.283 32.4527C21.9269 34.3138 20.3787 37.9007 20.3787 37.9007L32.5309 31.1594ZM74.9776 14.445C72.237 15.9651 69.0585 15.502 69.0585 15.502C69.0585 15.502 70.3235 12.5724 73.0642 11.0522C75.8048 9.53204 78.9833 9.99622 78.9833 9.99622C78.9833 9.99622 77.7183 12.9248 74.9776 14.445ZM78.8132 8.63701C76.4367 9.95537 73.6801 9.55173 73.6801 9.55173C73.6801 9.55173 74.7768 7.01264 77.1533 5.69428C79.5304 4.37592 82.2859 4.77846 82.2859 4.77846C82.2859 4.77846 81.1903 7.31864 78.8132 8.63701ZM81.7213 13.7931C79.3447 15.1115 76.5892 14.7095 76.5892 14.7095C76.5892 14.7095 77.6854 12.1693 80.0619 10.851C82.4385 9.53259 85.1951 9.93568 85.1951 9.93568C85.1951 9.93568 84.0984 12.4748 81.7213 13.7931ZM85.2296 8.46213C82.8525 9.7805 80.0965 9.37741 80.0965 9.37741C80.0965 9.37741 81.1932 6.83832 83.5703 5.51995C85.9468 4.20159 88.7023 4.60359 88.7023 4.60359C88.7023 4.60359 87.6062 7.14377 85.2296 8.46213ZM68.3606 14.2642C65.0045 16.1259 61.1128 15.557 61.1128 15.557C61.1128 15.557 62.6616 11.9712 66.0177 10.1095C69.3732 8.24788 73.265 8.81624 73.265 8.81624C73.265 8.81624 71.7168 12.4026 68.3606 14.2642ZM72.099 20.8927C68.7429 22.7543 64.8511 22.1848 64.8511 22.1848C64.8511 22.1848 66.3999 18.599 69.7555 16.7374C73.1116 14.8758 77.0033 15.4441 77.0033 15.4441C77.0033 15.4441 75.4551 19.031 72.099 20.8927ZM53.6655 23.2958C53.7332 23.1387 55.3661 19.4312 58.9263 17.4567C62.4859 15.4821 66.5256 16.0423 66.6961 16.0674L67.7565 16.2223L67.3347 17.1992C67.267 17.3558 65.6346 21.0649 62.0745 23.0394C58.5149 25.0145 54.4735 24.4521 54.3035 24.4276L53.2437 24.2727L53.6655 23.2958Z" fill="white"/>
<path fill-rule="evenodd" clip-rule="evenodd" d="M53.223 25.7695L51.1033 25.4591L51.947 23.5064C51.9877 23.4115 52.5614 22.1095 53.7367 20.6149L9.29505 45.2667C7.859 46.0631 7.34585 47.8636 8.14885 49.2878C8.9524 50.712 10.7674 51.2209 12.2035 50.424L56.6484 25.7705C54.746 25.9816 53.3259 25.7847 53.223 25.7695ZM17.8241 32.8519C17.8241 32.8519 16.2753 36.4377 12.9192 38.2993C9.56367 40.1609 5.67188 39.5931 5.67188 39.5931L17.8241 32.8519ZM41.244 17.3541C38.5034 18.8743 35.3249 18.4112 35.3249 18.4112C35.3249 18.4112 36.5899 15.4816 39.3306 13.9614C42.0712 12.4412 45.2497 12.9054 45.2497 12.9054C45.2497 12.9054 43.9847 15.834 41.244 17.3541ZM45.0796 11.5462C42.703 12.8646 39.9464 12.461 39.9464 12.461C39.9464 12.461 41.0431 9.92188 43.4197 8.60351C45.7968 7.28515 48.5523 7.6877 48.5523 7.6877C48.5523 7.6877 47.4567 10.2279 45.0796 11.5462ZM47.9876 16.7024C45.611 18.0207 42.8555 17.6187 42.8555 17.6187C42.8555 17.6187 43.9517 15.0785 46.3282 13.7602C48.7048 12.4418 51.4614 12.8449 51.4614 12.8449C51.4614 12.8449 50.3647 15.384 47.9876 16.7024ZM51.496 11.3713C49.1189 12.6897 46.3629 12.2866 46.3629 12.2866C46.3629 12.2866 47.4596 9.7475 49.8367 8.42913C52.2132 7.11077 54.9687 7.51277 54.9687 7.51277C54.9687 7.51277 53.8726 10.0529 51.496 11.3713ZM34.627 17.1734C31.2709 19.0351 27.3791 18.4661 27.3791 18.4661C27.3791 18.4661 28.9279 14.8803 32.284 13.0187C35.6396 11.1571 39.5314 11.7254 39.5314 11.7254C39.5314 11.7254 37.9831 15.3118 34.627 17.1734ZM38.3653 23.8018C35.0092 25.6635 31.1174 25.094 31.1174 25.094C31.1174 25.094 32.6662 21.5082 36.0218 19.6466C39.3779 17.7849 43.2697 18.3533 43.2697 18.3533C43.2697 18.3533 41.7214 21.9402 38.3653 23.8018ZM19.9319 26.205C19.9995 26.0479 21.6325 22.3404 25.1926 20.3659C28.7522 18.3913 32.792 18.9515 32.9625 18.9766L34.0229 19.1315L33.601 20.1084C33.5334 20.2649 31.901 23.974 28.3408 25.9486C24.7812 27.9237 20.7398 27.3613 20.5699 27.3368L19.51 27.1819L19.9319 26.205Z" fill="white"/>
<path fill-rule="evenodd" clip-rule="evenodd" d="M20.0032 23.5234L2.52583 33.2183C1.18273 33.9629 0.632725 35.5993 1.25588 36.994C1.96703 38.5851 3.90303 39.2254 5.43423 38.3756L22.9149 28.6796C21.013 28.8902 19.5923 28.6933 19.4895 28.678L17.3698 28.3682L18.2135 26.4149C18.2542 26.3205 18.8278 25.0185 20.0032 23.5234Z" fill="white"/>
</svg>
