<svg width="90" height="56" viewBox="0 0 90 56" fill="none" xmlns="http://www.w3.org/2000/svg">
<g clip-path="url(#clip0_41_171)">
<path fill-rule="evenodd" clip-rule="evenodd" d="M23.4323 13.1487C29.8276 9.73026 36.4506 6.45899 41.8549 1.48238C42.9044 0.74771 44.1558 1.42288 45.0305 2.12993C43.9015 3.25825 42.7843 4.46649 41.3583 5.20543C36.0795 7.41233 30.9683 10.1865 26.6332 14.0073C24.8402 14.4006 22.8274 14.7241 21.6145 16.285C21.8919 15.0847 22.3104 13.7726 23.4323 13.1487ZM37.9684 7.64278C39.1049 6.87753 40.5434 6.88932 41.8564 6.71598C45.4586 6.36127 49.4205 7.13368 51.9395 9.82894C49.9418 10.3972 48.2123 11.5816 46.6855 12.9399C45.7558 11.5842 44.685 10.3358 43.499 9.1918C42.9807 9.53208 42.4737 9.89247 41.956 10.2358C39.484 9.62559 36.4828 9.35166 34.3631 11.0577C32.4353 12.7616 32.572 15.5656 32.9627 17.847C30.7252 20.0766 28.6359 22.4602 26.8155 25.0315C25.1103 24.9709 23.1544 25.1597 21.958 26.513C20.7522 27.8685 20.7913 29.7899 20.9904 31.457C20.8435 31.5818 20.5472 31.8351 20.3971 31.9606C18.9538 28.6536 18.4757 24.7442 19.9585 21.3424C20.9722 18.9249 22.9435 17.0358 25.1387 15.6141C24.655 16.7218 24.3248 17.8914 24.224 19.0923C24.1484 20.4595 23.4498 21.8861 24.1095 23.2067C24.5217 24.1303 25.612 24.3717 26.4813 24.6901C26.1684 24.1102 25.6477 23.5783 25.733 22.8708C25.7021 21.9468 26.3454 21.1137 26.151 20.1853C25.8394 17.7299 26.411 14.8337 28.6108 13.3168C31.7229 11.4141 34.8608 9.55092 37.9684 7.64278Z" fill="white"/>
<path fill-rule="evenodd" clip-rule="evenodd" d="M33.232 17.7078C33.9393 13.8157 37.9043 11.1569 41.863 10.6387C38.8837 12.8816 35.9429 15.1752 33.232 17.7078ZM36.0415 15.9793C38.0918 13.9348 40.3647 12.1397 42.6666 10.3982C44.5724 14.3775 46.757 18.3058 47.7155 22.6576C48.5564 26.8861 48.2592 31.5479 46.0105 35.2929C44.866 37.2854 43.4509 39.1499 42.6945 41.3503C41.9896 43.2881 41.4764 45.4123 40.0087 46.9346C38.4879 48.5125 36.2057 49.0093 34.0903 49.013C33.2713 49.055 32.5299 48.3603 32.469 47.5387C32.2838 46.2075 32.6668 44.8922 32.923 43.5995C35.6675 42.5882 38.0633 40.4672 39.0332 37.6325C37.4438 39.6141 35.8293 42.0594 33.1368 42.4805C33.377 40.232 33.7297 37.9844 34.4432 35.8407C37.3823 35.0719 40.0779 33.1057 41.2866 30.2326C39.5544 32.1535 37.6704 34.504 34.8922 34.654C35.2915 33.2948 35.7483 31.9558 36.1827 30.6053C37.9433 30.2089 39.6559 29.2184 40.5026 27.5521C39.324 28.5529 38.1894 29.8879 36.5076 29.8818C36.8805 28.151 37.5372 26.5051 38.0625 24.8193C39.2241 24.4308 40.2444 23.6737 40.8636 22.5948C40.0649 23.3107 39.281 24.0767 38.2433 24.4299C39.4648 20.1966 40.9318 16.0403 42.2458 11.8358C39.7655 16.0221 37.6545 20.4207 35.5251 24.7967C34.7002 23.9408 34.5773 22.7223 34.1758 21.655C34.2707 22.9101 34.5528 24.1888 35.3607 25.1857C34.7435 26.545 34.1589 27.9168 33.5339 29.2712C32.2093 28.2098 32.0121 26.4402 31.6231 24.8986C31.462 26.7176 32.1173 28.5119 33.2935 29.8884C32.6217 31.4976 31.998 33.1292 31.3891 34.7674C29.0018 33.2359 28.5994 30.0628 28.242 27.471C27.6506 30.5292 28.935 33.6759 30.993 35.9118C30.3882 37.6393 29.9544 39.421 29.4039 41.1694C27.314 39.4389 26.9218 36.5676 26.4532 34.0516C26.0023 37.0607 27.2023 40.1132 29.2194 42.3151C28.8631 44.2326 28.6648 46.1906 28.8702 48.1388C26.6933 47.3611 24.5505 46.1877 23.1426 44.2797C22.4007 43.311 22.0485 42.1287 21.6785 40.984C19.8621 38.7791 20.3488 35.2671 22.2337 33.2641C21.8329 34.9745 21.4554 36.6997 21.3638 38.4625C24.8685 30.162 29.623 22.2983 36.0415 15.9793ZM51.8196 9.31134C53.3362 9.24345 54.9559 9.12457 56.3066 9.87711C57.5403 10.4799 58.2518 11.6656 58.7906 12.8335C57.8713 11.7739 56.9307 10.6682 55.6002 10.0504C54.4567 9.43365 53.1065 9.39851 51.8196 9.31134Z" fill="white"/>
<path fill-rule="evenodd" clip-rule="evenodd" d="M46.442 13.4139C48.4484 12.1983 50.8499 11.1202 53.2406 11.6587C55.1099 12.0624 56.3367 13.6485 57.1153 15.2387C57.8158 16.5354 57.9628 18.2415 57.0465 19.5004C55.8799 21.1154 53.8394 21.7821 51.9659 22.2511C52.3727 24.0729 52.9404 26.0863 52.1101 27.8955C51.7873 28.6362 50.9845 28.9309 50.2528 29.133C50.3017 30.3845 49.8402 31.608 48.9735 32.5472C50.6241 26.1372 50.197 19.0003 46.442 13.4139ZM59.5042 12.6688C62.5623 13.1884 64.9765 15.5275 66.2114 18.3045C64.2434 17.4815 62.0379 17.6075 60.0512 18.294C60.1065 16.3929 59.3024 14.59 59.5042 12.6688ZM23.5021 28.9633C23.9646 27.7908 25.0018 27.0732 26.0373 26.5531C24.9875 28.4014 24.0571 30.3279 23.2645 32.3248C23.1232 31.2004 23.0253 30.0004 23.5021 28.9633Z" fill="white"/>
<path fill-rule="evenodd" clip-rule="evenodd" d="M53.688 24.6357C56.2177 23.5262 58.7884 21.7133 59.5065 18.8257C62.3682 18.9129 65.156 20.4992 66.6227 23.0575C67.8807 25.28 68.8014 27.9037 68.3666 30.4833C68.078 32.9853 67.2223 35.5038 65.4355 37.2873C64.753 36.8183 64.0404 36.4035 63.2952 36.0466C62.7114 33.6887 61.6038 30.9802 59.14 30.1578C56.4601 29.3516 53.713 30.7134 51.601 32.2958C53.6977 31.2155 56.344 30.3553 58.5943 31.5604C60.7326 32.778 61.5221 35.4017 61.7893 37.7249C62.997 38.1804 64.5969 38.7003 64.8618 40.1887C65.0058 41.651 63.679 42.5131 62.9828 43.5766C61.9795 46.2235 60.7291 49.0082 58.3019 50.5758C56.6586 51.6727 54.5246 51.7106 52.7273 50.9465C51.501 51.7181 50.033 52.5084 48.5492 52.0223C47.0887 51.5376 46.32 50.0274 45.8403 48.6459C44.4649 48.8994 43.1216 48.354 42.1324 47.3663C43.1621 43.6826 45.2457 40.4562 47.043 37.141C47.6984 36.0431 48.0264 34.7918 48.3836 33.5674C49.4575 32.8749 50.2536 31.8321 50.6258 30.5874C53.0245 29.7776 54.0071 27.0412 53.688 24.6357Z" fill="white"/>
<path fill-rule="evenodd" clip-rule="evenodd" d="M67.2898 37.6451C68.4209 36.2554 69.0926 34.5604 69.6994 32.8932C70.0657 33.3423 70.4635 33.8581 71.0972 33.9079C72.7318 34.1092 74.2392 33.2404 75.6573 32.5465C76.2461 35.2655 74.9837 38.0518 73.0575 39.9561C70.5772 40.8502 68.0194 41.6336 65.7639 43.0385C66.2482 42.483 66.7941 41.9133 66.9255 41.1628C67.1508 40.1173 66.6124 39.0907 65.8855 38.3711C66.4296 38.313 66.9613 38.1035 67.2898 37.6451ZM42.8119 49.9087C42.3567 49.1443 42.5601 48.2021 42.5233 47.3777C43.0766 48.4314 43.8605 49.2153 44.739 49.7684C44.1439 49.9131 43.4151 50.6243 42.8119 49.9087ZM65.6945 45.7557C67.0058 44.7466 68.2695 43.5597 69.8864 43.113C68.2538 49.5634 62.1257 53.5517 56.0829 54.4503C59.1616 51.4073 62.3809 48.5137 65.6945 45.7557Z" fill="white"/>
</g>
<defs>
<clipPath id="clip0_41_171">
<rect width="90" height="56" fill="white"/>
</clipPath>
</defs>
</svg>
