<svg width="90" height="56" viewBox="0 0 90 56" fill="none" xmlns="http://www.w3.org/2000/svg">
<g clip-path="url(#clip0_41_136)">
<path fill-rule="evenodd" clip-rule="evenodd" d="M48.9443 37.0666C46.4332 39.0815 44.336 41.2315 42.7917 42.9827C43.6539 40.2518 44.5113 37.2806 45.0984 35.1969C44.7433 34.9007 44.4091 34.5798 44.1035 34.2292C43.163 34.6121 42.1788 34.853 41.1813 34.953C40.2778 36.2108 39.2963 37.6813 38.4356 39.0068C38.6099 37.5759 38.7264 36.1112 38.8022 34.9219C38.03 34.8237 37.2634 34.6408 36.5163 34.3689C35.202 33.8905 34.0282 33.1743 33.0331 32.2761C33.5635 38.002 32.3887 43.9965 31.5394 47.3752C31.3844 47.9926 31.1349 48.5586 30.798 49.0576C30.4966 49.5041 30.4184 50.0534 30.5839 50.5645C30.7485 51.0733 31.131 51.4698 31.6335 51.6527L41.3924 55.2047C41.8907 55.386 42.4354 55.3304 42.887 55.052C43.3389 54.7736 43.6343 54.311 43.6971 53.7828C43.769 53.1806 43.9531 52.587 44.2444 52.0179C46.1934 48.2091 51.0647 39.9004 57.4911 37.4813C56.7563 37.0564 56.0699 36.5538 55.4494 35.9773C53.4998 37.1543 51.1712 37.5452 48.9443 37.0666Z" fill="white"/>
<path fill-rule="evenodd" clip-rule="evenodd" d="M47.4848 22.8098C47.3138 22.8557 47.1407 22.8447 46.9858 22.7884C46.7413 22.6994 46.5421 22.4972 46.4686 22.2277C46.3486 21.7874 46.6088 21.3345 47.0501 21.2159C49.6496 20.517 51.749 18.5955 52.666 16.0761C52.8218 15.648 53.2966 15.4277 53.7264 15.5841C54.1561 15.7405 54.3782 16.2145 54.2224 16.6426C53.122 19.6659 50.6032 21.9712 47.4848 22.8098ZM68.5117 18.4746L68.5124 18.4761C68.0372 18.209 67.5395 17.9778 67.0238 17.7901C64.6017 16.9086 61.9711 16.9928 59.6162 18.027C59.4129 18.1163 59.1927 18.1174 58.9989 18.0468C58.7944 17.9724 58.6192 17.8182 58.5241 17.6038C58.3391 17.1866 58.5278 16.6996 58.9458 16.5159C61.6931 15.3093 64.7623 15.2111 67.5881 16.2396C68.0165 16.3956 68.4326 16.5799 68.8377 16.7847C69.2995 12.3688 66.7172 8.02114 62.3458 6.43007C59.2189 5.29196 55.7651 5.79099 53.1101 7.71312C51.9402 5.98443 50.2514 4.66192 48.2702 3.9408C44.2483 2.47697 39.7829 3.74231 37.143 7.01406C36.7394 6.80088 36.3223 6.61572 35.8965 6.46072C30.7472 4.58655 25.0393 7.23524 23.1723 12.3648C21.3053 17.4945 23.9752 23.1925 29.1245 25.0666C29.704 25.2776 30.3019 25.4304 30.9098 25.5307C34.5801 25.9331 38.2469 24.2164 40.2713 21.1392C40.5216 20.7585 41.0352 20.6535 41.4172 20.9036C41.7997 21.1543 41.9066 21.6662 41.6564 22.0468C39.4775 25.3588 35.6683 27.3198 31.7294 27.2364C32.6867 29.5802 34.5914 31.4462 37.0518 32.3417C39.5992 33.2689 42.4015 33.0145 44.7201 31.6811C45.5971 33.1001 46.9155 34.1759 48.5107 34.7565C51.0719 35.6887 53.9501 35.1252 55.9679 33.3696C57.0942 34.7424 58.5583 35.7797 60.2518 36.396C65.4008 38.2701 71.109 35.6215 72.976 30.4919C74.6556 25.8773 72.7409 20.8418 68.5117 18.4746Z" fill="white"/>
</g>
<defs>
<clipPath id="clip0_41_136">
<rect width="90" height="56" fill="white"/>
</clipPath>
</defs>
</svg>
